# xmcd
#
# Track frame offsets:
#   150
#   44705
#   47714
#   51604
#   58526
#   66519
#
# Disc length: 3936 seconds
#
# Revision: 0
# Processed by: cddbd v1.5.2PL0 Copyright (c) Steve Scherf et al.
# Submitted via: GXTranscoder 2.0.1939
#
DISCID=600f5e06
DTITLE=1 - 2
DYEAR=2015
DGENRE=Books and Spoken
TTITLE0=01
TTITLE1=02
TTITLE2=03
TTITLE3=04
TTITLE4=05
TTITLE5=06
EXTD=3
EXTT0=
EXTT1=
EXTT2=
EXTT3=
EXTT4=
EXTT5=
PLAYORDER=
